<?xml version="1.0" encoding="UTF-8" standalone="no"?>
<!-- Generator: Adobe Illustrator 19.0.0, SVG Export Plug-In . SVG Version: 6.00 Build 0)  -->

<svg
   xmlns:dc="http://purl.org/dc/elements/1.1/"
   xmlns:cc="http://creativecommons.org/ns#"
   xmlns:rdf="http://www.w3.org/1999/02/22-rdf-syntax-ns#"
   xmlns:svg="http://www.w3.org/2000/svg"
   xmlns="http://www.w3.org/2000/svg"
   xmlns:sodipodi="http://sodipodi.sourceforge.net/DTD/sodipodi-0.dtd"
   xmlns:inkscape="http://www.inkscape.org/namespaces/inkscape"
   version="1.1"
   id="Layer_1"
   x="0px"
   y="0px"
   viewBox="0 0 780.12397 571.12397"
   xml:space="preserve"
   sodipodi:docname="dimensionBox.svg"
   width="780.12396"
   height="571.12396"
   inkscape:version="0.92.3 (2405546, 2018-03-11)"><metadata
   id="metadata983"><rdf:RDF><cc:Work
       rdf:about=""><dc:format>image/svg+xml</dc:format><dc:type
         rdf:resource="http://purl.org/dc/dcmitype/StillImage" /><dc:title></dc:title></cc:Work></rdf:RDF></metadata><defs
   id="defs981" /><sodipodi:namedview
   pagecolor="#ffffff"
   bordercolor="#666666"
   borderopacity="1"
   objecttolerance="10"
   gridtolerance="10"
   guidetolerance="10"
   inkscape:pageopacity="0"
   inkscape:pageshadow="2"
   inkscape:window-width="1920"
   inkscape:window-height="1017"
   id="namedview979"
   showgrid="false"
   inkscape:zoom="0.4681388"
   inkscape:cx="245.34133"
   inkscape:cy="504.4609"
   inkscape:window-x="1272"
   inkscape:window-y="-8"
   inkscape:window-maximized="1"
   inkscape:current-layer="Layer_1"
   showguides="false"
   inkscape:lockguides="true"
   inkscape:pagecheckerboard="true"
   inkscape:showpageshadow="false" />
<path
   style="fill:#efc75e"
   d="M 19.225063,230.61451 520.14488,0.6999021 730.55256,139.82788 l -207.2035,107.32763 -252.062,125.243 -252.061997,-124.848 z"
   id="path936"
   inkscape:connector-curvature="0"
   sodipodi:nodetypes="ccccccc" />
<path
   style="fill:#e7bf55"
   d="M 24.565363,269.30265 271.28706,372.39847 730.55256,139.82784 728.41645,299.37619 274.7713,526.08482 20.293125,400.84282 Z"
   id="path938"
   inkscape:connector-curvature="0"
   sodipodi:nodetypes="ccccccc" />
<path
   style="fill:#dbb551"
   d="m 275.5593,525.69107 -4.27224,-153.2926 -252.061997,-124.848 v 0 L 20.293125,400.84282 274.7713,526.08307 Z"
   id="path940"
   inkscape:connector-curvature="0"
   sodipodi:nodetypes="ccccccc" />
<path
   style="fill:#f7e3af;stroke-width:0.97288114"
   d="M 242.78307,128.13709 492.66632,260.45736 542.4469,235.91968 291.7975,103.60032 Z"
   id="path942"
   inkscape:connector-curvature="0"
   sodipodi:nodetypes="ccccc" />
<path
   style="fill:#f1d999"
   d="m 492.66632,260.45736 51.2,-25.206 v 78.769 l -13.785,-2.363 -14.572,17.723 -22.843,-1.575 c 0,-0.001 0,-67.348 0,-67.348 z"
   id="path944"
   inkscape:connector-curvature="0" />
<path
   style="fill:#f2f2f2"
   d="m 223.5713,375.24107 -85.071,-42.535 c -4.726,-2.363 -8.665,0.394 -8.665,6.302 v 57.108 c 0,5.908 3.938,12.603 8.665,14.966 l 85.465,42.535 c 4.726,2.363 8.665,-0.394 8.665,-6.302 v -57.502 c -0.395,-5.908 -4.333,-12.208 -9.059,-14.572 z m -19.299,46.868 -54.351,-27.175 c -2.363,-1.182 -4.332,-4.726 -4.332,-7.877 0,-3.151 1.969,-4.726 4.332,-3.545 l 54.351,27.175 c 2.363,1.182 4.332,4.726 4.332,7.877 0,3.151 -1.969,4.726 -4.332,3.545 z m 7.877,-19.693 -62.228,-31.508 c -2.363,-1.182 -4.332,-4.726 -4.332,-7.877 0,-3.151 1.969,-4.726 4.332,-3.545 l 62.228,31.508 c 2.363,1.182 4.332,4.726 4.332,7.877 0.001,3.545 -1.969,4.726 -4.332,3.545 z"
   id="path946"
   inkscape:connector-curvature="0" />
<g
   id="g948"
   transform="translate(0,66.99959)">
</g>
<g
   id="g950"
   transform="translate(0,66.99959)">
</g>
<g
   id="g952"
   transform="translate(0,66.99959)">
</g>
<g
   id="g954"
   transform="translate(0,66.99959)">
</g>
<g
   id="g956"
   transform="translate(0,66.99959)">
</g>
<g
   id="g958"
   transform="translate(0,66.99959)">
</g>
<g
   id="g960"
   transform="translate(0,66.99959)">
</g>
<g
   id="g962"
   transform="translate(0,66.99959)">
</g>
<g
   id="g964"
   transform="translate(0,66.99959)">
</g>
<g
   id="g966"
   transform="translate(0,66.99959)">
</g>
<g
   id="g968"
   transform="translate(0,66.99959)">
</g>
<g
   id="g970"
   transform="translate(0,66.99959)">
</g>
<g
   id="g972"
   transform="translate(0,66.99959)">
</g>
<g
   id="g974"
   transform="translate(0,66.99959)">
</g>
<g
   id="g976"
   transform="translate(0,66.99959)">
</g>
<path
   style="fill:none;stroke:#e90000;stroke-width:50;stroke-linecap:butt;stroke-linejoin:miter;stroke-miterlimit:4;stroke-dasharray:none;stroke-opacity:1"
   d="M 263.94537,548.18336 9.162273,423.15584"
   id="path5233"
   inkscape:connector-curvature="0"
   sodipodi:nodetypes="cc" /><path
   style="fill:none;stroke:#00d200;stroke-width:50;stroke-linecap:butt;stroke-linejoin:miter;stroke-miterlimit:4;stroke-dasharray:none;stroke-opacity:1"
   d="M 286.12134,548.17273 739.87056,321.38916"
   id="path5246"
   inkscape:connector-curvature="0"
   sodipodi:nodetypes="cc" /><path
   style="fill:#00d200;fill-opacity:1;stroke:#0000db;stroke-width:50;stroke-linecap:butt;stroke-linejoin:miter;stroke-miterlimit:4;stroke-dasharray:none;stroke-opacity:1"
   d="m 753.59419,298.96594 1.00323,-157.02885"
   id="path5250"
   inkscape:connector-curvature="0"
   sodipodi:nodetypes="cc" /></svg>