<?xml version="1.0" encoding="UTF-8" standalone="no"?>
<!-- Generator: Adobe Illustrator 19.0.0, SVG Export Plug-In . SVG Version: 6.00 Build 0)  -->

<svg
   xmlns:dc="http://purl.org/dc/elements/1.1/"
   xmlns:cc="http://creativecommons.org/ns#"
   xmlns:rdf="http://www.w3.org/1999/02/22-rdf-syntax-ns#"
   xmlns:svg="http://www.w3.org/2000/svg"
   xmlns="http://www.w3.org/2000/svg"
   xmlns:sodipodi="http://sodipodi.sourceforge.net/DTD/sodipodi-0.dtd"
   xmlns:inkscape="http://www.inkscape.org/namespaces/inkscape"
   version="1.1"
   id="Layer_1"
   x="0px"
   y="0px"
   viewBox="0 0 772.12397 552.12397"
   xml:space="preserve"
   sodipodi:docname="dimensionBox.svg"
   width="772.12396"
   height="552.12396"
   inkscape:version="0.92.3 (2405546, 2018-03-11)"><metadata
   id="metadata983"><rdf:RDF><cc:Work
       rdf:about=""><dc:format>image/svg+xml</dc:format><dc:type
         rdf:resource="http://purl.org/dc/dcmitype/StillImage" /><dc:title></dc:title></cc:Work></rdf:RDF></metadata><defs
   id="defs981" /><sodipodi:namedview
   pagecolor="#ffffff"
   bordercolor="#666666"
   borderopacity="1"
   objecttolerance="10"
   gridtolerance="10"
   guidetolerance="10"
   inkscape:pageopacity="0"
   inkscape:pageshadow="2"
   inkscape:window-width="1920"
   inkscape:window-height="1017"
   id="namedview979"
   showgrid="false"
   inkscape:zoom="1.8725552"
   inkscape:cx="662.24241"
   inkscape:cy="424.14408"
   inkscape:window-x="1272"
   inkscape:window-y="-8"
   inkscape:window-maximized="1"
   inkscape:current-layer="Layer_1"
   showguides="false"
   inkscape:lockguides="true"
   inkscape:pagecheckerboard="true"
   inkscape:showpageshadow="false" />
<path
   style="fill:#efc75e"
   d="M 10.680589,232.84611 511.60041,2.9316434 722.00809,142.05948 l -207.2035,107.32763 -252.062,125.243 -252.062001,-124.848 z"
   id="path936"
   inkscape:connector-curvature="0"
   sodipodi:nodetypes="ccccccc" />
<path
   style="fill:#e7bf55"
   d="M 16.020889,271.53426 262.74259,374.63008 722.00809,142.05945 719.87198,301.6078 266.22683,528.31643 11.748651,403.07443 Z"
   id="path938"
   inkscape:connector-curvature="0"
   sodipodi:nodetypes="ccccccc" />
<path
   style="fill:#dbb551"
   d="m 267.01483,527.92268 -4.27224,-153.2926 -252.062001,-124.848 v 0 l 1.068062,153.29235 254.478179,125.24025 z"
   id="path940"
   inkscape:connector-curvature="0"
   sodipodi:nodetypes="ccccccc" />
<path
   style="fill:#f7e3af"
   d="m 140.58983,170.30906 257.0083,135.92421 51.2,-25.206 -257.7963,-135.92328 z"
   id="path942"
   inkscape:connector-curvature="0"
   sodipodi:nodetypes="ccccc" />
<path
   style="fill:#f1d999"
   d="m 397.59813,306.23327 51.2,-25.206 v 78.769 l -13.785,-2.363 -14.572,17.723 -22.843,-1.575 c 0,-0.001 0,-67.348 0,-67.348 z"
   id="path944"
   inkscape:connector-curvature="0" />
<path
   style="fill:#f2f2f2"
   d="m 215.02683,377.47268 -85.071,-42.535 c -4.726,-2.363 -8.665,0.394 -8.665,6.302 v 57.108 c 0,5.908 3.938,12.603 8.665,14.966 l 85.465,42.535 c 4.726,2.363 8.665,-0.394 8.665,-6.302 v -57.502 c -0.395,-5.908 -4.333,-12.208 -9.059,-14.572 z m -19.299,46.868 -54.351,-27.175 c -2.363,-1.182 -4.332,-4.726 -4.332,-7.877 0,-3.151 1.969,-4.726 4.332,-3.545 l 54.351,27.175 c 2.363,1.182 4.332,4.726 4.332,7.877 0,3.151 -1.969,4.726 -4.332,3.545 z m 7.877,-19.693 -62.228,-31.508 c -2.363,-1.182 -4.332,-4.726 -4.332,-7.877 0,-3.151 1.969,-4.726 4.332,-3.545 l 62.228,31.508 c 2.363,1.182 4.332,4.726 4.332,7.877 0.001,3.545 -1.969,4.726 -4.332,3.545 z"
   id="path946"
   inkscape:connector-curvature="0" />
<g
   id="g948"
   transform="translate(0,47.99971)">
</g>
<g
   id="g950"
   transform="translate(0,47.99971)">
</g>
<g
   id="g952"
   transform="translate(0,47.99971)">
</g>
<g
   id="g954"
   transform="translate(0,47.99971)">
</g>
<g
   id="g956"
   transform="translate(0,47.99971)">
</g>
<g
   id="g958"
   transform="translate(0,47.99971)">
</g>
<g
   id="g960"
   transform="translate(0,47.99971)">
</g>
<g
   id="g962"
   transform="translate(0,47.99971)">
</g>
<g
   id="g964"
   transform="translate(0,47.99971)">
</g>
<g
   id="g966"
   transform="translate(0,47.99971)">
</g>
<g
   id="g968"
   transform="translate(0,47.99971)">
</g>
<g
   id="g970"
   transform="translate(0,47.99971)">
</g>
<g
   id="g972"
   transform="translate(0,47.99971)">
</g>
<g
   id="g974"
   transform="translate(0,47.99971)">
</g>
<g
   id="g976"
   transform="translate(0,47.99971)">
</g>
<path
   style="fill:none;stroke:#e90000;stroke-width:50;stroke-linecap:round;stroke-linejoin:miter;stroke-miterlimit:4;stroke-dasharray:none;stroke-opacity:1"
   d="M 207.82129,526.71956 26.251222,435.93453"
   id="path5233"
   inkscape:connector-curvature="0"
   sodipodi:nodetypes="cc" /><path
   style="fill:none;stroke:#00d200;stroke-width:50;stroke-linecap:round;stroke-linejoin:miter;stroke-miterlimit:4;stroke-dasharray:none;stroke-opacity:1"
   d="M 325.6285,526.80333 713.20052,332.68354"
   id="path5246"
   inkscape:connector-curvature="0"
   sodipodi:nodetypes="cc" /><path
   style="fill:none;stroke:#0000db;stroke-width:50;stroke-linecap:round;stroke-linejoin:miter;stroke-miterlimit:4;stroke-dasharray:none;stroke-opacity:1"
   d="M 746.24736,276.88021 746.05295,166.59794"
   id="path5250"
   inkscape:connector-curvature="0"
   sodipodi:nodetypes="cc" /></svg>